<mxfile host="Electron" agent="Mozilla/5.0 (Macintosh; Intel Mac OS X 10_15_7) AppleWebKit/537.36 (KHTML, like Gecko) draw.io/24.7.8 Chrome/128.0.6613.36 Electron/32.0.1 Safari/537.36" version="24.7.8">
  <diagram name="PÃ¡gina-1" id="Wd3Yw5G85OHn2Ttq9tOE">
    <mxGraphModel dx="751" dy="482" grid="0" gridSize="10" guides="1" tooltips="1" connect="1" arrows="1" fold="1" page="1" pageScale="1" pageWidth="827" pageHeight="1169" background="#ffffff" math="0" shadow="0">
      <root>
        <mxCell id="0" />
        <mxCell id="1" parent="0" />
        <mxCell id="iy80IEU9ZQIbK0lbwhQy-2" value="" style="shape=mxgraph.cisco.computers_and_peripherals.terminal;sketch=0;html=1;pointerEvents=1;dashed=0;fillColor=#036897;strokeColor=#ffffff;strokeWidth=2;verticalLabelPosition=bottom;verticalAlign=top;align=center;outlineConnect=0;" vertex="1" parent="1">
          <mxGeometry x="355" y="143" width="61" height="54" as="geometry" />
        </mxCell>
        <mxCell id="iy80IEU9ZQIbK0lbwhQy-7" value="" style="shape=mxgraph.cisco.computers_and_peripherals.terminal;sketch=0;html=1;pointerEvents=1;dashed=0;fillColor=#036897;strokeColor=#ffffff;strokeWidth=2;verticalLabelPosition=bottom;verticalAlign=top;align=center;outlineConnect=0;" vertex="1" parent="1">
          <mxGeometry x="237" y="143" width="61" height="54" as="geometry" />
        </mxCell>
        <mxCell id="iy80IEU9ZQIbK0lbwhQy-10" value="" style="shape=mxgraph.cisco.computers_and_peripherals.terminal;sketch=0;html=1;pointerEvents=1;dashed=0;fillColor=#036897;strokeColor=#ffffff;strokeWidth=2;verticalLabelPosition=bottom;verticalAlign=top;align=center;outlineConnect=0;" vertex="1" parent="1">
          <mxGeometry x="468" y="141" width="61" height="54" as="geometry" />
        </mxCell>
        <mxCell id="iy80IEU9ZQIbK0lbwhQy-16" value="" style="endArrow=none;html=1;rounded=0;strokeColor=#006EAF;fillColor=#1ba1e2;" edge="1" parent="1" target="iy80IEU9ZQIbK0lbwhQy-7">
          <mxGeometry width="50" height="50" relative="1" as="geometry">
            <mxPoint x="268" y="256" as="sourcePoint" />
            <mxPoint x="420" y="199" as="targetPoint" />
          </mxGeometry>
        </mxCell>
        <mxCell id="iy80IEU9ZQIbK0lbwhQy-27" value="" style="endArrow=none;html=1;rounded=0;strokeWidth=8;fillColor=#1ba1e2;strokeColor=#006EAF;" edge="1" parent="1">
          <mxGeometry width="50" height="50" relative="1" as="geometry">
            <mxPoint x="183" y="259" as="sourcePoint" />
            <mxPoint x="592" y="259" as="targetPoint" />
          </mxGeometry>
        </mxCell>
        <mxCell id="iy80IEU9ZQIbK0lbwhQy-28" value="" style="endArrow=none;html=1;rounded=0;strokeColor=#006EAF;fillColor=#1ba1e2;" edge="1" parent="1">
          <mxGeometry width="50" height="50" relative="1" as="geometry">
            <mxPoint x="385.21" y="256" as="sourcePoint" />
            <mxPoint x="385.21" y="197" as="targetPoint" />
          </mxGeometry>
        </mxCell>
        <mxCell id="iy80IEU9ZQIbK0lbwhQy-29" value="" style="endArrow=none;html=1;rounded=0;strokeColor=#006EAF;fillColor=#1ba1e2;" edge="1" parent="1">
          <mxGeometry width="50" height="50" relative="1" as="geometry">
            <mxPoint x="498.21000000000004" y="256" as="sourcePoint" />
            <mxPoint x="498.21000000000004" y="197" as="targetPoint" />
          </mxGeometry>
        </mxCell>
      </root>
    </mxGraphModel>
  </diagram>
</mxfile>
